<svg width="224" height="32" viewBox="0 0 224 32" fill="none" xmlns="http://www.w3.org/2000/svg">
<g opacity="0.99">
<path d="M37.1587 22.6404C37.1587 16.5882 41.6623 13.7032 45.603 13.7032C47.6787 13.7032 49.4379 14.5125 50.5289 16.0606V6.56055H55.8066V22.6756C55.8066 28.5162 51.8658 31.9993 46.5529 31.9993C41.0289 31.9993 37.1587 28.235 37.1587 22.6404ZM50.5289 22.8515C50.5289 20.3535 48.9103 18.6291 46.5177 18.6291C44.125 18.6291 42.5064 20.3531 42.5064 22.8515C42.5064 25.3495 44.125 27.0739 46.5177 27.0739C48.9103 27.0739 50.5289 25.3495 50.5289 22.8515Z" fill="#537CB6"/>
<path d="M57.98 22.8514C57.98 17.5733 61.8502 13.7031 67.339 13.7031C72.8277 13.7031 76.6979 17.5733 76.6979 22.8514C76.6979 28.1291 72.8277 31.9992 67.339 31.9992C61.8502 31.9992 57.98 28.1291 57.98 22.8514ZM71.3502 22.8514C71.3502 20.3534 69.7316 18.629 67.339 18.629C64.9463 18.629 63.3277 20.353 63.3277 22.8514C63.3277 25.3494 64.9463 27.0738 67.339 27.0738C69.7316 27.0738 71.3502 25.3494 71.3502 22.8514Z" fill="#537CB6"/>
<path d="M78.2144 22.8514C78.2144 17.5733 82.0845 13.7031 87.5733 13.7031C92.3934 13.7031 95.9123 16.6939 96.6511 20.9864H91.3029C90.7047 19.5437 89.3325 18.629 87.5733 18.629C85.1807 18.629 83.5621 20.353 83.5621 22.8514C83.5621 25.3494 85.1807 27.0738 87.5733 27.0738C89.3325 27.0738 90.7047 26.1587 91.3029 24.7164H96.6511C95.9123 29.0089 92.3934 31.9992 87.5733 31.9992C82.0845 31.9992 78.2144 28.1291 78.2144 22.8514Z" fill="#537CB6"/>
<path d="M98.7119 23.1688V14.1611H103.99V23.1688C103.99 25.9132 105.327 27.0743 107.297 27.0743C109.267 27.0743 110.604 25.9132 110.604 23.1688V14.1611H115.882V23.1688C115.882 29.0094 112.433 31.9997 107.297 31.9997C102.16 31.9997 98.7119 29.0446 98.7119 23.1688Z" fill="#537CB6"/>
<path d="M118.819 21.7614C118.819 16.1668 122.056 13.7041 126.278 13.7041C128.741 13.7041 130.817 14.654 132.119 16.4838C133.421 14.654 135.461 13.7041 137.96 13.7041C142.182 13.7041 145.419 16.1673 145.419 21.7614V31.5427H140.141V21.7614C140.141 19.4393 139.015 18.63 137.431 18.63C135.883 18.63 134.758 19.4393 134.758 21.7614V31.5427H129.48V21.7614C129.48 19.4393 128.354 18.63 126.806 18.63C125.222 18.63 124.096 19.4393 124.096 21.7614V31.5427H118.818V21.7614H118.819Z" fill="#537CB6"/>
<path d="M147.778 23.0626C147.778 17.468 151.649 13.7031 157.173 13.7031C162.626 13.7031 166.426 17.3274 166.426 23.0273V31.5422H161.57V28.6567C160.655 30.8034 158.685 31.9992 156.187 31.9992C152.317 31.9992 147.778 29.1142 147.778 23.0626ZM161.149 22.8514C161.149 20.3534 159.53 18.629 157.137 18.629C154.744 18.629 153.126 20.353 153.126 22.8514C153.126 25.3494 154.744 27.0738 157.137 27.0738C159.53 27.0738 161.149 25.3494 161.149 22.8514Z" fill="#537CB6"/>
<path d="M169.82 6.56055H175.098V21.4788L180.622 14.1603H187.166L180.094 22.6752L187.448 31.5413H180.763L175.098 24.0474V31.5413H169.821V6.56055H169.82Z" fill="#537CB6"/>
<path d="M187.163 22.8514C187.163 17.5733 191.033 13.7031 196.522 13.7031C202.01 13.7031 205.775 17.5733 205.775 22.8514V24.3294H192.651C193.073 26.3699 194.621 27.2845 196.522 27.2845C198.035 27.2845 199.161 26.968 199.829 26.0181H205.283C204.157 29.6071 200.849 31.9997 196.522 31.9997C191.032 31.9992 187.163 28.1291 187.163 22.8514ZM200.356 20.9869C199.758 19.1924 198.351 18.4183 196.521 18.4183C194.691 18.4183 193.284 19.2277 192.756 20.9869H200.356Z" fill="#537CB6"/>
<path d="M208.022 21.6551C208.022 16.2368 211.189 13.7031 215.834 13.7031C220.478 13.7031 223.609 16.2011 223.645 21.6899V21.7957H218.367V21.6551C218.367 19.333 217.312 18.629 215.834 18.629C214.356 18.629 213.3 19.3325 213.3 21.6551V31.5422H208.022V21.6551Z" fill="#537CB6"/>
</g>
<path d="M31.8085 31.849V27.9812V21.6167L10.452 0.0810547H0.0405273L31.8085 31.849Z" fill="#F26B52"/>
<path d="M24.8912 24.8916H9.60449V31.8491H25.1033H31.3643H31.8084L24.8912 24.8916Z" fill="url(#paint0_linear_2302_5498)"/>
<path d="M0 31.8492H6.95751V6.95798L0 0V31.8492Z" fill="url(#paint1_linear_2302_5498)"/>
<path d="M20.1638 6.82264H31.8491V0.0410156L13.3887 0.0934564L20.1638 6.82264Z" fill="#5A87C5"/>
<path d="M24.9639 6.82227V11.4693L31.8494 18.3075V6.82227H24.9639Z" fill="url(#paint2_linear_2302_5498)"/>
<defs>
<linearGradient id="paint0_linear_2302_5498" x1="9.60468" y1="28.3704" x2="31.8085" y2="28.3704" gradientUnits="userSpaceOnUse">
<stop stop-color="#F26B52"/>
<stop offset="0.1921" stop-color="#EF6950"/>
<stop offset="0.3702" stop-color="#E76148"/>
<stop offset="0.5427" stop-color="#DD543C"/>
<stop offset="0.7107" stop-color="#D1432E"/>
<stop offset="0.8031" stop-color="#C93727"/>
</linearGradient>
<linearGradient id="paint1_linear_2302_5498" x1="3.47876" y1="31.7079" x2="3.47876" y2="1.53271" gradientUnits="userSpaceOnUse">
<stop stop-color="#F26B52"/>
<stop offset="0.2632" stop-color="#F06950"/>
<stop offset="0.4487" stop-color="#E9634A"/>
<stop offset="0.6103" stop-color="#E0583F"/>
<stop offset="0.7572" stop-color="#D64A33"/>
<stop offset="0.8947" stop-color="#C93727"/>
<stop offset="0.8955" stop-color="#C93727"/>
</linearGradient>
<linearGradient id="paint2_linear_2302_5498" x1="28.4067" y1="18.3073" x2="28.4067" y2="5.9447" gradientUnits="userSpaceOnUse">
<stop stop-color="#5A87C5"/>
<stop offset="0.4103" stop-color="#5985C4"/>
<stop offset="0.5778" stop-color="#5480C0"/>
<stop offset="0.701" stop-color="#4B79BA"/>
<stop offset="0.8025" stop-color="#3E6EB2"/>
<stop offset="0.8897" stop-color="#2A61A9"/>
<stop offset="0.9276" stop-color="#1E5BA4"/>
</linearGradient>
</defs>
</svg>
