<svg width="33" height="32" viewBox="0 0 33 32" fill="none" xmlns="http://www.w3.org/2000/svg">
<path d="M3.16675 17.917H2.41675V19.417H3.16675V17.917ZM29.8334 19.417H30.5834V17.917H29.8334V19.417ZM12.5001 28.5837C12.0859 28.5837 11.7501 28.9194 11.7501 29.3337C11.7501 29.7479 12.0859 30.0837 12.5001 30.0837V28.5837ZM20.5001 30.0837C20.9143 30.0837 21.2501 29.7479 21.2501 29.3337C21.2501 28.9194 20.9143 28.5837 20.5001 28.5837V30.0837ZM17.2501 24.0003C17.2501 23.5861 16.9143 23.2503 16.5001 23.2503C16.0859 23.2503 15.7501 23.5861 15.7501 24.0003H17.2501ZM7.16675 3.41699H25.8334V1.91699H7.16675V3.41699ZM29.0834 6.66699V20.0003H30.5834V6.66699H29.0834ZM25.8334 23.2503H7.16675V24.7503H25.8334V23.2503ZM3.91675 20.0003V6.66699H2.41675V20.0003H3.91675ZM7.16675 23.2503C5.37182 23.2503 3.91675 21.7953 3.91675 20.0003H2.41675C2.41675 22.6237 4.54339 24.7503 7.16675 24.7503V23.2503ZM29.0834 20.0003C29.0834 21.7953 27.6283 23.2503 25.8334 23.2503V24.7503C28.4568 24.7503 30.5834 22.6237 30.5834 20.0003H29.0834ZM25.8334 3.41699C27.6283 3.41699 29.0834 4.87207 29.0834 6.66699H30.5834C30.5834 4.04364 28.4568 1.91699 25.8334 1.91699V3.41699ZM7.16675 1.91699C4.5434 1.91699 2.41675 4.04364 2.41675 6.66699H3.91675C3.91675 4.87207 5.37182 3.41699 7.16675 3.41699V1.91699ZM3.16675 19.417H29.8334V17.917H3.16675V19.417ZM12.5001 30.0837H16.5001V28.5837H12.5001V30.0837ZM16.5001 30.0837H20.5001V28.5837H16.5001V30.0837ZM17.2501 29.3337V24.0003H15.7501V29.3337H17.2501Z" fill="#475E70"/>
</svg>
