<svg width="352" height="49" viewBox="0 0 352 49" fill="none" xmlns="http://www.w3.org/2000/svg">
<g opacity="0.99">
<path d="M0.0644531 30.8402C0.0644531 19.4207 8.56209 13.9771 15.9976 13.9771C19.9141 13.9771 23.2335 15.5042 25.292 18.4251V0.5H35.2501V30.9067C35.2501 41.9269 27.8146 48.4991 17.79 48.4991C7.3669 48.4991 0.0644531 41.3963 0.0644531 30.8402ZM25.292 31.2386C25.292 26.5253 22.238 23.2715 17.7234 23.2715C13.2088 23.2715 10.1548 26.5244 10.1548 31.2386C10.1548 35.9519 13.2088 39.2056 17.7234 39.2056C22.238 39.2056 25.292 35.9519 25.292 31.2386Z" fill="white"/>
<path d="M39.3513 31.239C39.3513 21.28 46.6538 13.9775 57.0103 13.9775C67.3668 13.9775 74.6692 21.28 74.6692 31.239C74.6692 41.1971 67.3668 48.4995 57.0103 48.4995C46.6538 48.4995 39.3513 41.1971 39.3513 31.239ZM64.5789 31.239C64.5789 26.5257 61.5248 23.2719 57.0103 23.2719C52.4957 23.2719 49.4417 26.5248 49.4417 31.239C49.4417 35.9523 52.4957 39.206 57.0103 39.206C61.5248 39.206 64.5789 35.9523 64.5789 31.239Z" fill="white"/>
<path d="M77.5298 31.239C77.5298 21.28 84.8322 13.9775 95.1888 13.9775C104.284 13.9775 110.923 19.6207 112.317 27.72H102.226C101.097 24.9978 98.5081 23.2719 95.1888 23.2719C90.6742 23.2719 87.6201 26.5248 87.6201 31.239C87.6201 35.9523 90.6742 39.206 95.1888 39.206C98.5081 39.206 101.097 37.4793 102.226 34.758H112.317C110.923 42.8572 104.284 48.4995 95.1888 48.4995C84.8322 48.4995 77.5298 41.1971 77.5298 31.239Z" fill="white"/>
<path d="M116.206 31.837V14.8408H126.164V31.837C126.164 37.0152 128.687 39.206 132.404 39.206C136.122 39.206 138.645 37.0152 138.645 31.837V14.8408H148.603V31.837C148.603 42.8572 142.096 48.4995 132.404 48.4995C122.711 48.4995 116.206 42.9237 116.206 31.837Z" fill="white"/>
<path d="M154.144 29.1814C154.144 18.6253 160.252 13.9785 168.218 13.9785C172.866 13.9785 176.783 15.7708 179.24 19.2233C181.696 15.7708 185.546 13.9785 190.26 13.9785C198.227 13.9785 204.334 18.6262 204.334 29.1814V47.6372H194.376V29.1814C194.376 24.8 192.251 23.2729 189.263 23.2729C186.342 23.2729 184.218 24.8 184.218 29.1814V47.6372H174.26V29.1814C174.26 24.8 172.135 23.2729 169.214 23.2729C166.226 23.2729 164.101 24.8 164.101 29.1814V47.6372H154.143V29.1814H154.144Z" fill="white"/>
<path d="M208.786 31.6374C208.786 21.0812 216.089 13.9775 226.512 13.9775C236.802 13.9775 243.971 20.8159 243.971 31.5708V47.6371H234.81V42.1926C233.083 46.2431 229.365 48.4995 224.652 48.4995C217.351 48.4995 208.786 43.056 208.786 31.6374ZM234.014 31.239C234.014 26.5257 230.961 23.2719 226.445 23.2719C221.93 23.2719 218.877 26.5248 218.877 31.239C218.877 35.9523 221.93 39.206 226.445 39.206C230.961 39.206 234.014 35.9523 234.014 31.239Z" fill="white"/>
<path d="M250.377 0.500977H260.335V28.6495L270.757 14.8405H283.106L269.763 30.9068L283.638 47.6359H271.025L260.336 33.4959V47.6359H250.378V0.500977H250.377Z" fill="white"/>
<path d="M283.099 31.239C283.099 21.28 290.401 13.9775 300.758 13.9775C311.114 13.9775 318.217 21.28 318.217 31.239V34.0278H293.455C294.251 37.8777 297.172 39.6035 300.758 39.6035C303.613 39.6035 305.737 39.0064 306.998 37.214H317.289C315.164 43.9858 308.924 48.5004 300.758 48.5004C290.4 48.4995 283.099 41.1971 283.099 31.239ZM307.994 27.7209C306.865 24.3349 304.209 22.8744 300.757 22.8744C297.305 22.8744 294.649 24.4015 293.653 27.7209H307.994Z" fill="white"/>
<path d="M322.458 28.9817C322.458 18.7583 328.434 13.9775 337.197 13.9775C345.96 13.9775 351.869 18.6909 351.935 29.0474V29.247H341.977V28.9817C341.977 24.6002 339.986 23.2719 337.197 23.2719C334.409 23.2719 332.417 24.5994 332.417 28.9817V47.6371H322.458V28.9817Z" fill="white"/>
</g>
</svg>
