<?xml version="1.0" standalone="no"?>
<!DOCTYPE svg PUBLIC "-//W3C//DTD SVG 20010904//EN"
 "http://www.w3.org/TR/2001/REC-SVG-20010904/DTD/svg10.dtd">
<svg version="1.0" xmlns="http://www.w3.org/2000/svg"
 width="260.000000pt" height="260.000000pt" viewBox="0 0 260.000000 260.000000"
 preserveAspectRatio="xMidYMid meet">
<metadata>
Created by potrace 1.14, written by Peter Selinger 2001-2017
</metadata>
<g transform="translate(0.000000,260.000000) scale(0.100000,-0.100000)"
fill="#000000" stroke="none">
<path d="M0 1298 l0 -1298 283 0 284 0 1 1006 c0 553 2 1008 4 1010 2 2 330
-323 728 -721 399 -399 718 -725 710 -726 -8 0 -287 -1 -620 -2 l-605 -2 -1
-282 0 -283 906 0 906 0 -1 419 0 420 -322 323 c-176 178 -568 572 -871 877
l-549 555 -427 0 -426 1 0 -1297z"/>
<path d="M1137 2590 l-38 -5 272 -270 272 -270 186 -2 c102 -1 191 -2 197 -2
7 -1 11 -61 11 -183 1 -101 2 -186 2 -189 1 -4 480 -485 557 -558 2 -2 4 331
4 741 l0 744 -712 0 c-392 -1 -730 -3 -751 -6z"/>
</g>
</svg>
